<?xml version="1.0" encoding="UTF-8"?>
<svg id="Layer_1" data-name="Layer 1" xmlns="http://www.w3.org/2000/svg" viewBox="0 0 431.63 113.72">
  <defs>
    <style>
      .cls-1 {
        letter-spacing: -.07em;
      }

      .cls-1, .cls-2 {
        fill: #2b3990;
      }

      .cls-1, .cls-2, .cls-3, .cls-4 {
        font-family: Helvetica, Helvetica;
      }

      .cls-5, .cls-6, .cls-7 {
        font-size: 8px;
      }

      .cls-5, .cls-8 {
        fill: #009444;
      }

      .cls-3 {
        letter-spacing: -.05em;
      }

      .cls-9, .cls-6 {
        fill: #f26522;
      }

      .cls-10 {
        fill: #f15a29;
      }

      .cls-11, .cls-7 {
        fill: #be1e2d;
      }

      .cls-12 {
        font-family: SimHei, SimHei;
      }

      .cls-13 {
        font-size: 12px;
      }

      .cls-14 {
        stroke: #f15a29;
      }

      .cls-14, .cls-15, .cls-16, .cls-17, .cls-18 {
        fill: none;
        stroke-miterlimit: 10;
      }

      .cls-15 {
        stroke: #f26522;
      }

      .cls-16 {
        stroke: #be1e2d;
      }

      .cls-16, .cls-17 {
        stroke-width: .75px;
      }

      .cls-17 {
        stroke: #009444;
      }

      .cls-18 {
        stroke: #231f20;
      }
    </style>
  </defs>
  <text class="cls-13" transform="translate(23.82 10.31)"><tspan class="cls-12" x="0" y="0">炎症</tspan><tspan class="cls-4" x="24" y="0">Caspase: </tspan><tspan class="cls-2" x="78.03" y="0">Caspase 1/4/5/</tspan><tspan class="cls-1" x="158.75" y="0">1</tspan><tspan class="cls-2" x="164.54" y="0">1/12</tspan></text>
  <text class="cls-6" transform="translate(160.85 68.47)"><tspan class="cls-12" x="0" y="0">切割</tspan><tspan class="cls-4" x="16" y="0">/</tspan><tspan class="cls-12" x="18.22" y="0">异源活化</tspan></text>
  <text class="cls-6" transform="translate(208.42 24.24)"><tspan class="cls-12" x="0" y="0">切割</tspan><tspan class="cls-4" x="16" y="0">/</tspan><tspan class="cls-12" x="18.22" y="0">同源活化</tspan><tspan class="cls-4" x="50.22" y="0">/</tspan><tspan class="cls-12" x="52.45" y="0">形成异二聚体</tspan></text>
  <text class="cls-13" transform="translate(23.82 42.05)"><tspan class="cls-12" x="0" y="0">凋亡</tspan><tspan class="cls-4" x="24" y="0">Caspase</tspan></text>
  <text class="cls-13" transform="translate(126.4 42.05)"><tspan class="cls-12" x="0" y="0">起始</tspan><tspan class="cls-4" x="24" y="0">Caspase</tspan></text>
  <text class="cls-13" transform="translate(236.69 42.05)"><tspan class="cls-4" x="0" y="0">Caspase 8/10: </tspan><tspan class="cls-12" x="80.72" y="0">含有串联</tspan><tspan class="cls-4" x="128.72" y="0" xml:space="preserve"> DED</tspan></text>
  <text class="cls-13" transform="translate(236.69 66.21)"><tspan class="cls-4" x="0" y="0">Caspase 2/9: </tspan><tspan class="cls-12" x="74.04" y="0">含有</tspan><tspan class="cls-4" x="98.04" y="0" xml:space="preserve"> CARD</tspan></text>
  <text class="cls-13" transform="translate(126.4 96.85)"><tspan class="cls-12" x="0" y="0">效应</tspan><tspan class="cls-4" x="24" y="0">Caspase: </tspan><tspan class="cls-2" x="78.03" y="0">Caspase 3/6/7</tspan></text>
  <text class="cls-5" transform="translate(324.21 83.32)"><tspan class="cls-4" x="0" y="0">CAD: </tspan><tspan class="cls-12" x="21.34" y="0">切割</tspan><tspan class="cls-4" x="37.34" y="0" xml:space="preserve"> DN</tspan><tspan class="cls-3" x="51.11" y="0">A</tspan></text>
  <text class="cls-7" transform="translate(331.04 96.88)"><tspan class="cls-4" x="0" y="0">PRAP: DN</tspan><tspan class="cls-3" x="37.79" y="0">A</tspan><tspan class="cls-4" x="42.68" y="0"> </tspan><tspan class="cls-12" x="44.91" y="0">损伤感受器</tspan></text>
  <text class="cls-7" transform="translate(332.06 109.88)"><tspan class="cls-3" x="0" y="0">F</tspan><tspan class="cls-4" x="4.45" y="0">AK: </tspan><tspan class="cls-12" x="19.57" y="0">参与黏着斑形成和调节</tspan></text>
  <polyline class="cls-18" points="20.59 37.36 .5 37.36 .5 5.28 20.59 5.28"/>
  <polyline class="cls-18" points="122.99 93.11 112.94 93.11 112.94 39.3 122.99 39.3"/>
  <line class="cls-18" x1="112.94" y1="39.3" x2="98.45" y2="39.3"/>
  <polyline class="cls-18" points="232.96 64.05 222.91 64.05 222.91 39.3 232.96 39.3"/>
  <line class="cls-18" x1="222.91" y1="39.3" x2="208.42" y2="39.3"/>
  <g>
    <line class="cls-14" x1="157.9" y1="46" x2="157.9" y2="81.85"/>
    <polygon class="cls-10" points="157.9 85.38 155.86 80.4 157.9 81.58 159.93 80.4 157.9 85.38"/>
  </g>
  <g>
    <path class="cls-15" d="M190.52,30.3s0-.02,0-.03c0-4.95,4.01-8.95,8.95-8.95s8.95,4.01,8.95,8.95-4.01,8.95-8.95,8.95"/>
    <polygon class="cls-9" points="191.22 33.76 192.36 28.51 190.56 30.02 188.36 29.21 191.22 33.76"/>
  </g>
  <g>
    <line class="cls-17" x1="286.36" y1="90" x2="319.17" y2="82.02"/>
    <polygon class="cls-8" points="319.08 83.97 321.78 81.38 318.19 80.33 319.08 83.97"/>
  </g>
  <g>
    <line class="cls-16" x1="285.06" y1="97.54" x2="328.81" y2="106.83"/>
    <rect class="cls-11" x="326.37" y="106.46" width="4.87" height=".75" transform="translate(155.97 406.26) rotate(-78.01)"/>
  </g>
  <g>
    <line class="cls-16" x1="285.06" y1="94.1" x2="327.94" y2="94.47"/>
    <rect class="cls-11" x="325.5" y="94.09" width="4.88" height=".75" transform="translate(230.66 421.58) rotate(-89.51)"/>
  </g>
</svg>